<svg width="143" height="25" viewBox="0 0 143 25" fill="none" xmlns="http://www.w3.org/2000/svg">
<path d="M13.168 1.632H0.208V24H13.168V20.352H4.688V14.432H12.208V10.88H4.688V5.28H13.168V1.632ZM16.0872 15.072C16.0872 20.608 19.6713 24.288 24.1833 24.288C26.9673 24.288 28.9513 23.008 30.0073 21.376V24H34.5513V0.32H30.0073V8.736C28.7913 7.072 26.5513 5.984 24.2153 5.984C19.6713 5.984 16.0872 9.536 16.0872 15.072ZM30.0393 15.136C30.0393 18.496 27.7993 20.352 25.3353 20.352C22.9353 20.352 20.6633 18.432 20.6633 15.072C20.6633 11.712 22.9353 9.92 25.3353 9.92C27.7993 9.92 30.0393 11.776 30.0393 15.136ZM55.6628 6.272H51.1508V16.032C51.1508 18.88 49.6148 20.416 47.1828 20.416C44.8148 20.416 43.2468 18.88 43.2468 16.032V6.272H38.7668V16.672C38.7668 21.536 41.7428 24.224 45.8708 24.224C48.0788 24.224 50.0308 23.264 51.1508 21.76V24H55.6628V6.272Z" fill="#F48C06"/>
<path d="M66.524 5.28H72.476V24H76.956V5.28H82.908V1.664H66.524V5.28ZM93.7928 9.664C96.0968 9.664 97.9528 11.136 98.0168 13.472H89.6008C89.9528 11.04 91.6488 9.664 93.7928 9.664ZM102.209 18.432H97.3768C96.8008 19.616 95.7448 20.576 93.8248 20.576C91.5848 20.576 89.7928 19.104 89.5688 16.48H102.529C102.625 15.904 102.657 15.328 102.657 14.752C102.657 9.472 99.0408 5.984 93.9208 5.984C88.6727 5.984 85.0247 9.536 85.0247 15.136C85.0247 20.704 88.7688 24.288 93.9208 24.288C98.3048 24.288 101.249 21.696 102.209 18.432ZM104.775 15.136C104.775 20.704 108.423 24.288 113.543 24.288C117.959 24.288 120.935 21.792 121.895 18.016H117.063C116.519 19.616 115.367 20.448 113.511 20.448C111.015 20.448 109.351 18.592 109.351 15.136C109.351 11.68 111.015 9.792 113.511 9.792C115.367 9.792 116.551 10.752 117.063 12.256H121.895C120.935 8.288 117.959 5.984 113.543 5.984C108.423 5.984 104.775 9.568 104.775 15.136ZM125.177 24H129.657V14.208C129.657 11.36 131.225 9.824 133.657 9.824C136.025 9.824 137.593 11.36 137.593 14.208V24H142.073V13.6C142.073 8.704 139.161 6.016 135.161 6.016C132.793 6.016 130.809 6.976 129.657 8.48V0.32H125.177V24Z" fill="black"/>
</svg>
