<svg width="24" height="24" viewBox="0 0 24 24" fill="none" xmlns="http://www.w3.org/2000/svg">
<g clip-path="url(#clip0_941_2213)">
<path d="M6.04376 0.298828C5.59539 0.298828 5.23193 0.662285 5.23193 1.11065V2.73424H6.85553V1.11065C6.85553 0.662285 6.49207 0.298828 6.04376 0.298828Z" fill="white"/>
<path d="M17.409 0.298828C16.9606 0.298828 16.5972 0.662285 16.5972 1.11065V2.73424H18.2208V1.11065C18.2208 0.662285 17.8573 0.298828 17.409 0.298828Z" fill="white"/>
<path d="M20.2951 3H17.8597V6.24723C17.8597 6.6956 17.4962 7.05905 17.0479 7.05905C16.5995 7.05905 16.2361 6.6956 16.2361 6.24723V3H6.49441V6.24723C6.49441 6.6956 6.13096 7.05905 5.68259 7.05905C5.23423 7.05905 4.87077 6.6956 4.87077 6.24723V3H2.43541C1.09037 3 0 4.09037 0 5.43541V20.8597C0 22.2047 1.09037 23.2951 2.43541 23.2951H20.2951C21.6401 23.2951 22.7305 22.2047 22.7305 20.8597V5.43541C22.7305 4.09037 21.6401 3 20.2951 3ZM21.1069 20.8597C21.1069 21.3081 20.7434 21.6715 20.2951 21.6715H2.43541C1.98705 21.6715 1.62359 21.3081 1.62359 20.8597V10.3062H21.1069V20.8597Z" fill="white"/>
<path d="M6.85582 11.6641H5.23223C4.78387 11.6641 4.42041 12.0275 4.42041 12.4759C4.42041 12.9243 4.78387 13.2877 5.23223 13.2877H6.85582C7.30419 13.2877 7.66765 12.9243 7.66765 12.4759C7.66765 12.0275 7.30419 11.6641 6.85582 11.6641Z" fill="white"/>
<path d="M12.5384 11.6641H10.9148C10.4665 11.6641 10.103 12.0275 10.103 12.4759C10.103 12.9243 10.4665 13.2877 10.9148 13.2877H12.5384C12.9868 13.2877 13.3503 12.9243 13.3503 12.4759C13.3503 12.0275 12.9868 11.6641 12.5384 11.6641Z" fill="white"/>
<path d="M18.2211 11.6641H16.5975C16.1491 11.6641 15.7856 12.0275 15.7856 12.4759C15.7856 12.9243 16.1491 13.2877 16.5975 13.2877H18.2211C18.6694 13.2877 19.0329 12.9243 19.0329 12.4759C19.0329 12.0275 18.6694 11.6641 18.2211 11.6641Z" fill="white"/>
<path d="M6.85582 14.9111H5.23223C4.78387 14.9111 4.42041 15.2746 4.42041 15.723C4.42041 16.1713 4.78387 16.5348 5.23223 16.5348H6.85582C7.30419 16.5348 7.66765 16.1713 7.66765 15.723C7.66765 15.2746 7.30419 14.9111 6.85582 14.9111Z" fill="white"/>
<path d="M12.5384 14.9111H10.9148C10.4665 14.9111 10.103 15.2746 10.103 15.723C10.103 16.1713 10.4665 16.5348 10.9148 16.5348H12.5384C12.9868 16.5348 13.3503 16.1713 13.3503 15.723C13.3503 15.2746 12.9868 14.9111 12.5384 14.9111Z" fill="white"/>
<path d="M18.2211 14.9111H16.5975C16.1491 14.9111 15.7856 15.2746 15.7856 15.723C15.7856 16.1713 16.1491 16.5348 16.5975 16.5348H18.2211C18.6694 16.5348 19.0329 16.1713 19.0329 15.723C19.0328 15.2746 18.6694 14.9111 18.2211 14.9111Z" fill="white"/>
<path d="M6.85582 18.1582H5.23223C4.78387 18.1582 4.42041 18.5217 4.42041 18.97C4.42041 19.4184 4.78387 19.7818 5.23223 19.7818H6.85582C7.30419 19.7818 7.66765 19.4183 7.66765 18.97C7.66765 18.5216 7.30419 18.1582 6.85582 18.1582Z" fill="white"/>
<path d="M12.5384 18.1582H10.9148C10.4665 18.1582 10.103 18.5217 10.103 18.97C10.103 19.4184 10.4665 19.7818 10.9148 19.7818H12.5384C12.9868 19.7818 13.3503 19.4184 13.3503 18.97C13.3503 18.5217 12.9868 18.1582 12.5384 18.1582Z" fill="white"/>
<path d="M18.2211 18.1582H16.5975C16.1491 18.1582 15.7856 18.5217 15.7856 18.97C15.7856 19.4184 16.1491 19.7818 16.5975 19.7818H18.2211C18.6694 19.7818 19.0329 19.4184 19.0329 18.97C19.0329 18.5217 18.6694 18.1582 18.2211 18.1582Z" fill="white"/>
</g>
<defs>
<clipPath id="clip0_941_2213">
<rect width="22.7305" height="22.7305" fill="white" transform="translate(0.361328 0.298828)"/>
</clipPath>
</defs>
</svg>
