<svg width="26" height="24" viewBox="0 0 26 24" fill="none" xmlns="http://www.w3.org/2000/svg">
<path d="M0.625043 0C0.279841 0 0 0.261185 0 0.583374V22.9683C0 23.2543 0.118694 23.5274 0.327753 23.7225V23.7225C0.518794 23.9008 0.77038 24 1.0317 24H25.0892C25.4344 24 25.7143 23.7388 25.7143 23.4166C25.7143 23.0944 25.4344 22.8333 25.0892 22.8333H3.25008C2.14552 22.8333 1.25009 21.9378 1.25009 20.8333V0.583374C1.25009 0.261185 0.970245 0 0.625043 0Z" fill="#C11574"/>
<path fill-rule="evenodd" clip-rule="evenodd" d="M5.62511 15.1477C4.49404 15.1356 3.50421 15.8548 3.23948 16.8813C2.97474 17.9077 3.50542 18.9686 4.51848 19.4382C5.53154 19.9079 6.75792 19.6615 7.47422 18.8444C8.19053 18.0273 8.20651 16.8566 7.51274 16.0227L10.4379 12.0208C10.6918 12.1012 10.9575 12.1445 11.2255 12.1491C11.9104 12.1551 12.5654 11.8876 13.0256 11.4141L15.6258 13.1409C15.5858 13.3095 15.5649 13.4815 15.5633 13.6542C15.5633 14.8914 16.6379 15.8944 17.9635 15.8944C19.289 15.8944 20.3636 14.8914 20.3636 13.6542C20.3617 13.1474 20.1718 12.6567 19.8261 12.2658L22.6138 8.2872C23.7488 8.62119 24.9734 8.11966 25.4786 7.11396C25.9837 6.10825 25.6135 4.90887 24.6124 4.30823C23.6113 3.70759 22.2885 3.89113 21.518 4.73759C20.7474 5.58405 20.767 6.83209 21.5637 7.65715L18.7885 11.5774C18.5128 11.4798 18.2208 11.4284 17.926 11.4257C17.2706 11.4254 16.6433 11.6739 16.1883 12.1141L13.5757 10.4107C13.5886 10.2592 13.5886 10.1071 13.5757 9.95564C13.6265 8.94335 12.9429 8.02526 11.9087 7.71681C10.8744 7.40836 9.74707 7.78639 9.15961 8.63865C8.57215 9.49092 8.67088 10.6051 9.40037 11.3557L6.51267 15.311C6.23104 15.2031 5.92954 15.1477 5.62511 15.1477ZM23.3139 5.10198C23.949 5.10198 24.4639 5.58256 24.4639 6.17539C24.4639 6.76822 23.949 7.2488 23.3139 7.2488C22.6787 7.2488 22.1638 6.76822 22.1638 6.17539C22.1638 5.58256 22.6787 5.10198 23.3139 5.10198ZM19.076 13.6543C19.076 13.0614 18.5611 12.5808 17.926 12.5808C17.2908 12.5808 16.7759 13.0614 16.7759 13.6543C16.7759 14.2471 17.2908 14.7277 17.926 14.7277C18.5611 14.7277 19.076 14.2471 19.076 13.6543ZM11.2254 8.83555C11.8606 8.83555 12.3755 9.31613 12.3755 9.90896C12.3755 10.5018 11.8606 10.9824 11.2254 10.9824C10.5903 10.9824 10.0754 10.5018 10.0754 9.90896C10.0754 9.31613 10.5903 8.83555 11.2254 8.83555ZM4.5604 17.793C4.73685 18.197 5.1577 18.4611 5.62512 18.4612C6.25065 18.4613 6.7616 17.9948 6.7752 17.4111C6.78536 16.975 6.51168 16.5765 6.08283 16.403C5.65398 16.2294 5.15527 16.3154 4.82114 16.6205C4.48702 16.9256 4.38395 17.389 4.5604 17.793Z" fill="#C11574"/>
</svg>
