<svg width="103" height="19" viewBox="0 0 103 19" fill="none" xmlns="http://www.w3.org/2000/svg">
<path d="M9.0125 0.975098L12.085 5.75866L17.5839 7.20258L13.9839 11.6029L14.3099 17.2789L9.0125 15.2148L3.71509 17.2789L4.04109 11.6029L0.441103 7.20258L5.94 5.75866L9.0125 0.975098Z" fill="#FBA333"/>
<path d="M30.2562 0.975098L33.3287 5.75866L38.8275 7.20258L35.2276 11.6029L35.5536 17.2789L30.2562 15.2148L24.9587 17.2789L25.2847 11.6029L21.6848 7.20258L27.1837 5.75866L30.2562 0.975098Z" fill="#FBA333"/>
<path d="M51.4998 0.975098L54.5723 5.75866L60.0712 7.20258L56.4712 11.6029L56.7972 17.2789L51.4998 15.2148L46.2024 17.2789L46.5284 11.6029L42.9284 7.20258L48.4273 5.75866L51.4998 0.975098Z" fill="#FBA333"/>
<path d="M72.7439 0.975098L75.8164 5.75866L81.3153 7.20258L77.7154 11.6029L78.0414 17.2789L72.7439 15.2148L67.4465 17.2789L67.7725 11.6029L64.1725 7.20258L69.6714 5.75866L72.7439 0.975098Z" fill="#FBA333"/>
<path d="M93.9876 0.975098L97.0601 5.75866L102.559 7.20258L98.959 11.6029L99.285 17.2789L93.9876 15.2148L88.6902 17.2789L89.0162 11.6029L85.4162 7.20258L90.9151 5.75866L93.9876 0.975098Z" fill="#FBA333"/>
</svg>
