<svg width="26" height="26" viewBox="0 0 26 26" fill="none" xmlns="http://www.w3.org/2000/svg">
<path d="M22 3.5H4C3.72386 3.5 3.5 3.72386 3.5 4V15H22.5V4C22.5 3.72386 22.2761 3.5 22 3.5Z" stroke="#527CEB"/>
<path d="M24.5 15.1176C24.7761 15.1176 25 14.8938 25 14.6176V3.5C24.9983 2.11997 23.88 1.00165 22.5 1H3.5C2.11997 1.00165 1.00165 2.11997 1 3.5V17.5C1.00165 18.88 2.11997 19.9983 3.5 20H9V22.2325L7.7225 23.0825C7.58302 23.1756 7.49947 23.3323 7.5 23.5V24C7.5 24.5523 7.94772 25 8.5 25H17.5C18.0523 25 18.5 24.5523 18.5 24V23.5C18.5 23.3329 18.4165 23.1768 18.2775 23.084L17 22.2325V20.0882C17 19.8121 16.7761 19.5882 16.5 19.5882C16.2239 19.5882 16 19.8121 16 20.0882V22.5C16 22.6671 16.0835 22.8232 16.2225 22.916L17.5 23.7675V24H8.5V23.7675L9.7775 22.9175C9.91698 22.8244 10.0005 22.6677 10 22.5V20H22.5C23.88 19.9983 24.9983 18.88 25 17.5V15C25 14.7239 24.7761 14.5 24.5 14.5H1.88235C1.60621 14.5 1.38235 14.7239 1.38235 15C1.38235 15.2761 1.60621 15.5 1.88235 15.5H24V17.5C24 18.3284 23.3284 19 22.5 19H3.5C2.67157 19 2 18.3284 2 17.5V3.5C2 2.67157 2.67157 2 3.5 2H22.5C23.3284 2 24 2.67157 24 3.5V14.6176C24 14.8938 24.2239 15.1176 24.5 15.1176Z" fill="#527CEB" stroke="#527CEB" stroke-width="0.4"/>
<path d="M10.8534 5.35245C10.6581 5.15726 10.3416 5.15726 10.1464 5.35245L7.14639 8.35245C6.9512 8.5477 6.9512 8.8642 7.14639 9.05945L10.1464 12.0594C10.3426 12.2489 10.6544 12.2462 10.8473 12.0534C11.0402 11.8605 11.0429 11.5486 10.8534 11.3524L8.20689 8.70595L10.8534 6.05945C11.0486 5.8642 11.0486 5.5477 10.8534 5.35245Z" fill="#527CEB"/>
<path d="M15.1463 12.0589C15.3416 12.2541 15.6581 12.2541 15.8533 12.0589L18.8533 9.05888C19.0485 8.86363 19.0485 8.54713 18.8533 8.35188L15.8533 5.35188C15.7278 5.2219 15.5419 5.16977 15.3671 5.21553C15.1922 5.26128 15.0557 5.39781 15.01 5.57262C14.9642 5.74744 15.0163 5.93334 15.1463 6.05888L17.7928 8.70538L15.1463 11.3519C14.9511 11.5471 14.9511 11.8636 15.1463 12.0589Z" fill="#527CEB"/>
</svg>
